<svg width="31" height="31" viewBox="0 0 24 24" fill="none" xmlns="http://www.w3.org/2000/svg">
  <path d="M16 4C16 4 14 3 11 3C8 3 6 5 6 8C6 10 7 11 7 11L6 14L8 15L9 19H14L15 15L17 11C17 11 18 10 18 8C18 5 16 4 16 4Z" stroke="#00FFFF" stroke-width="2" stroke-linejoin="round"/>
  
  <path d="M8 6L10 4M12 5L14 3M15 7L17 5" stroke="#00FFFF" stroke-width="1.5" stroke-linecap="round"/>
  
  <path d="M9 19V21H14V19" stroke="#00FFFF" stroke-width="2" stroke-linecap="round" stroke-linejoin="round"/>
  <path d="M7 21H16" stroke="#00FFFF" stroke-width="2" stroke-linecap="round"/>
</svg>